<svg width="159" height="51" viewBox="0 0 159 51" fill="none" xmlns="http://www.w3.org/2000/svg">
<g clip-path="url(#clip0_34_1670)">
<path d="M45.5801 35.9363C45.3306 35.3269 45.0968 34.6863 44.8474 34.1394L43.6939 31.53L43.6471 31.4831C40.2177 23.9831 36.5545 16.3581 32.673 8.85813L32.5171 8.54563C32.1274 7.81125 31.7377 6.99875 31.3324 6.24875C30.8336 5.35813 30.3503 4.405 29.5553 3.49875C28.7804 2.55052 27.8051 1.78655 26.6999 1.26196C25.5947 0.737381 24.3871 0.465271 23.1642 0.465271C21.9413 0.465271 20.7337 0.737381 19.6284 1.26196C18.5232 1.78655 17.5479 2.55052 16.773 3.49875C16.0403 4.405 15.4948 5.35813 14.9959 6.24875C14.6062 7.06125 14.2165 7.85813 13.8112 8.5925L13.6554 8.905C9.83623 16.405 6.11065 24.03 2.68123 31.53L2.5877 31.6238C2.24476 32.4363 1.83947 33.28 1.44976 34.1863C1.20035 34.7331 0.95094 35.3269 0.701529 35.9831C0.0281678 37.7015 -0.186858 39.5662 0.0776443 41.3933C0.342146 43.2203 1.07705 44.9468 2.20992 46.4025C3.34279 47.8582 4.83452 48.9929 6.53811 49.6948C8.2417 50.3966 10.0983 50.6414 11.9251 50.405C13.6763 50.1739 15.3627 49.5892 16.8821 48.6863C18.9086 47.5456 20.8571 45.8894 23.0395 43.4988C25.2218 45.8894 27.2171 47.5456 29.1968 48.7019C31.1006 49.822 33.2565 50.4402 35.4633 50.4988C38.0187 50.5094 40.4918 49.5929 42.4257 47.9186C44.3597 46.2443 45.6241 43.9252 45.9853 41.3894C46.4029 39.5672 46.2616 37.661 45.5801 35.9206V35.9363ZM23.1954 38.53C20.5142 35.0925 18.7683 31.9363 18.1759 29.2331C17.9305 28.2315 17.8776 27.1921 18.0201 26.1706C18.1292 25.3738 18.4254 24.6706 18.8306 24.0769C19.7659 22.7175 21.4027 21.8738 23.1954 21.8738C24.0467 21.8477 24.8911 22.0339 25.653 22.4157C26.4148 22.7975 27.0701 23.3629 27.5601 24.0613C27.9654 24.6863 28.2615 25.3738 28.3551 26.1706C28.5109 27.0769 28.4486 28.1238 28.1992 29.2331C27.6068 31.8894 25.8609 35.0769 23.1954 38.53ZM43.0548 40.8425C42.8777 42.1299 42.3671 43.3483 41.5739 44.3764C40.7808 45.4044 39.7327 46.2062 38.5342 46.7019C37.3495 47.2019 36.0401 47.3425 34.7618 47.2019C33.5148 47.0456 32.2677 46.6394 30.9895 45.8894C28.8671 44.5745 26.9587 42.9409 25.3309 41.0456C28.6045 36.9831 30.5842 33.28 31.3324 29.9831C31.6909 28.4206 31.7377 27.0144 31.5818 25.7175C31.3872 24.4883 30.9299 23.3157 30.2412 22.28C29.455 21.157 28.4055 20.2448 27.185 19.6236C25.9646 19.0024 24.6106 18.6912 23.2421 18.7175C20.3583 18.7175 17.7862 20.0613 16.2274 22.2644C15.5257 23.2974 15.0722 24.4794 14.9024 25.7175C14.6998 27.03 14.7465 28.4831 15.1518 29.9831C15.9001 33.28 17.9265 37.03 21.1533 41.0769C19.5531 43.0084 17.6403 44.6564 15.4948 45.9519C14.2009 46.7019 12.9695 47.0925 11.7224 47.2488C9.78305 47.4978 7.82402 46.9694 6.27114 45.7786C4.71826 44.5878 3.69705 42.8308 3.42947 40.8894C3.27359 39.6394 3.3827 38.3894 3.88153 36.9831C4.03741 36.4831 4.27123 35.9831 4.52065 35.3894C4.86359 34.5769 5.26888 33.7331 5.65859 32.8894L5.72094 32.78C9.088 25.3269 12.7668 17.7175 16.5859 10.2644L16.7418 9.95188C17.1315 9.20188 17.5212 8.405 17.9265 7.655C18.3318 6.85813 18.7683 6.0925 19.3295 5.4675C19.8152 4.88629 20.4222 4.41887 21.1076 4.09815C21.793 3.77744 22.5402 3.61124 23.2967 3.61124C24.0531 3.61124 24.8003 3.77744 25.4858 4.09815C26.1712 4.41887 26.7781 4.88629 27.2639 5.4675C27.8095 6.0925 28.2615 6.85813 28.6668 7.655C29.0565 8.405 29.4462 9.2175 29.8515 9.95188L30.0074 10.2644C33.8109 17.7175 37.4898 25.3269 40.9192 32.78L40.9659 32.8269C41.3712 33.6394 41.7142 34.5456 42.1039 35.3269C42.3533 35.9363 42.6027 36.4206 42.7586 36.9363C43.0548 38.3425 43.2106 39.5925 43.0548 40.8425ZM64.7536 38.1863C63.5789 38.2035 62.4155 37.9554 61.3496 37.4604C60.2837 36.9654 59.3426 36.2362 58.5962 35.3269C56.919 33.3893 56.0289 30.8911 56.1021 28.3269C56.0765 25.7069 56.9953 23.1657 58.6898 21.1706C59.4735 20.2497 60.4492 19.5122 61.548 19.0101C62.6469 18.508 63.8422 18.2534 65.0498 18.2644C66.186 18.2332 67.3116 18.4922 68.3205 19.017C69.3294 19.5418 70.1887 20.3152 70.8174 21.2644L70.9733 18.8113H75.525V37.6863H70.9577L70.8018 34.9363C70.1536 35.9498 69.2577 36.7804 68.1991 37.3492C67.1405 37.918 65.9545 38.2062 64.7536 38.1863ZM65.9383 33.6863C66.8424 33.6863 67.6374 33.4363 68.3856 32.9831C69.0715 32.4831 69.6327 31.8269 70.0692 31.03C70.4589 30.2331 70.6615 29.28 70.6615 28.2175C70.7223 27.2947 70.5431 26.3719 70.1414 25.5393C69.7398 24.7067 69.1294 23.9928 68.37 23.4675C67.6404 23.0118 66.798 22.7703 65.9383 22.7703C65.0786 22.7703 64.2362 23.0118 63.5065 23.4675C62.8206 23.9675 62.2595 24.6238 61.823 25.4206C61.4108 26.2994 61.208 27.2623 61.2306 28.2331C61.1699 29.1559 61.3491 30.0788 61.7507 30.9114C62.1524 31.744 62.7627 32.4578 63.5221 32.9831C64.2548 33.4363 65.0498 33.6863 65.9383 33.6863ZM83.3192 13.7175C83.3192 14.2644 83.2256 14.7644 82.9762 15.1706C82.7268 15.5613 82.3839 15.9206 81.9318 16.1706C81.4798 16.4206 80.9965 16.5144 80.4977 16.5144C79.9989 16.5144 79.5 16.4206 79.048 16.1706C78.6205 15.9321 78.2609 15.5878 78.0036 15.1706C77.7622 14.7255 77.6438 14.2239 77.6606 13.7175C77.6606 13.155 77.7698 12.655 78.0036 12.2644C78.253 11.7956 78.6115 11.5144 79.048 11.2644C79.5 11.0144 79.9833 10.905 80.4977 10.905C80.9939 10.8935 81.4846 11.0113 81.9217 11.2469C82.3589 11.4824 82.7276 11.8276 82.9918 12.2488C83.2187 12.7043 83.331 13.2085 83.3192 13.7175ZM78.0192 37.6238V18.78H82.9762V37.655H78.0036L78.0192 37.6238ZM96.2262 23.7175V23.78C95.9924 23.6706 95.6806 23.6238 95.4468 23.5769C95.135 23.5144 94.8856 23.5144 94.5895 23.5144C93.2021 23.5144 92.1577 23.9206 91.4718 24.7644C90.7236 25.6238 90.3806 26.8269 90.3806 28.3738V37.6394H85.408V18.7644H89.9753L90.1312 21.6238C90.63 20.6238 91.2224 19.8738 92.0642 19.3113C92.9015 18.7647 93.8872 18.4918 94.8856 18.53C95.2442 18.53 95.5871 18.5613 95.8833 18.6238C96.0392 18.6706 96.1327 18.6706 96.2262 18.7175V23.7175ZM98.2215 37.6238V11.03H103.179V21.1863C103.88 20.28 104.675 19.5769 105.673 19.03C107.252 18.2538 109.046 18.0336 110.766 18.405C112.485 18.7764 114.03 19.7176 115.15 21.0769C116.831 23.0184 117.722 25.523 117.644 28.0925C117.67 30.7125 116.751 33.2537 115.057 35.2488C114.273 36.1697 113.297 36.9071 112.199 37.4093C111.1 37.9114 109.904 38.1659 108.697 38.155C107.561 38.1862 106.435 37.9272 105.426 37.4024C104.417 36.8776 103.558 36.1042 102.929 35.155L102.773 37.6081L98.2215 37.655V37.6238ZM107.808 33.6863C108.697 33.6863 109.492 33.4363 110.24 32.9831C110.926 32.4831 111.487 31.8269 111.924 31.03C112.329 30.2331 112.516 29.28 112.516 28.2175C112.516 27.1706 112.329 26.2175 111.924 25.4206C111.514 24.6522 110.939 23.985 110.24 23.4675C109.51 23.0118 108.668 22.7703 107.808 22.7703C106.949 22.7703 106.106 23.0118 105.377 23.4675C104.675 23.9675 104.129 24.6238 103.677 25.4206C103.265 26.2994 103.062 27.2623 103.085 28.2331C103.024 29.1559 103.203 30.0788 103.605 30.9114C104.007 31.744 104.617 32.4578 105.377 32.9831C106.109 33.4363 106.904 33.6863 107.808 33.6863ZM119.515 37.6394V18.7644H124.082L124.238 21.2175C124.812 20.2772 125.626 19.5076 126.597 18.9884C127.567 18.4692 128.658 18.2193 129.757 18.2644C131.013 18.2426 132.248 18.5927 133.307 19.2708C134.366 19.9489 135.203 20.925 135.711 22.0769C136.257 23.2644 136.553 24.7331 136.553 26.3738V37.6863H131.58V27.03C131.58 25.7175 131.284 24.6863 130.692 23.9206C130.099 23.1706 129.289 22.7644 128.26 22.7644C127.512 22.7644 126.857 22.9206 126.28 23.2644C125.735 23.6238 125.283 24.0769 124.94 24.7175C124.593 25.3651 124.421 26.0922 124.441 26.8269V37.6394H119.515ZM139.032 37.6394V11.0144H144.004V21.1706C144.678 20.2593 145.554 19.5179 146.563 19.0053C147.572 18.4927 148.687 18.223 149.819 18.2175C150.993 18.2003 152.157 18.4484 153.223 18.9434C154.288 19.4384 155.23 20.1676 155.976 21.0769C157.645 23.0183 158.529 25.5152 158.454 28.0769C158.482 30.6971 157.562 33.2388 155.867 35.2331C155.083 36.154 154.107 36.8915 153.009 37.3936C151.91 37.8958 150.714 38.1503 149.507 38.1394C148.371 38.1706 147.245 37.9116 146.236 37.3868C145.227 36.862 144.368 36.0886 143.739 35.1394L143.599 37.5925L139.032 37.6394ZM148.665 33.6863C149.569 33.6863 150.364 33.4363 151.097 32.9831C151.798 32.4831 152.344 31.8269 152.796 31.03C153.186 30.2331 153.388 29.28 153.388 28.2175C153.449 27.2947 153.27 26.3719 152.868 25.5393C152.467 24.7067 151.856 23.9928 151.097 23.4675C150.367 23.0118 149.525 22.7703 148.665 22.7703C147.805 22.7703 146.963 23.0118 146.233 23.4675C145.547 23.9675 144.986 24.6238 144.55 25.4206C144.115 26.2916 143.911 27.2602 143.957 28.2331C143.897 29.1559 144.076 30.0788 144.477 30.9114C144.879 31.744 145.49 32.4578 146.249 32.9831C146.982 33.4363 147.73 33.6863 148.665 33.6863Z" fill="#FF385C"/>
</g>
<defs>
<clipPath id="clip0_34_1670">
<rect width="159" height="50" fill="white" transform="translate(0 0.5)"/>
</clipPath>
</defs>
</svg>
