<svg width="140" height="43" viewBox="0 0 140 43" fill="none" xmlns="http://www.w3.org/2000/svg">
<g clip-path="url(#clip0_34_1685)">
<path d="M104.109 41.243L115.785 28.3118L104.109 15.3788H116.428L122.211 21.6608L127.779 15.3788H139.668L128.048 28.2584L139.828 41.243H127.458L121.728 34.9094L116.052 41.243H104.109Z" fill="#FF6600"/>
<path d="M104.109 9.581H90.886V15.3788H104.109V24.1166H90.886V32.1368H104.109V41.243H81.167V0.5H104.109V9.581Z" fill="#FF6600"/>
<path d="M71.4889 0.5V17.174H71.3824C69.2397 14.7464 66.5627 13.9028 63.4565 13.9028C57.0938 13.9028 52.301 18.1664 50.6185 23.8034C48.6999 17.5922 43.7518 13.7864 36.4146 13.7864C30.4561 13.7864 25.7509 16.4228 23.2954 20.7188V15.3794H10.979V9.5822H24.4197V0.5H0V41.2436H10.979V24.1166H21.9222C21.5959 25.3748 21.4218 26.7218 21.4218 28.1432C21.4218 36.6422 28.0085 42.6056 36.4146 42.6056C43.4834 42.6056 48.1417 39.3344 50.6057 33.3704H41.1971C39.9244 35.162 38.959 35.6942 36.4146 35.6942C33.4643 35.6942 30.9205 33.1568 30.9205 30.149H50.0786C50.9095 36.8996 56.2441 42.7214 63.5649 42.7214C66.7228 42.7214 69.6141 41.1902 71.3824 38.6048H71.4889V41.2424H81.1671V0.5H71.4889ZM31.2261 24.2384C31.8366 21.6506 33.8727 19.9592 36.4146 19.9592C39.2128 19.9592 41.1454 21.5984 41.6537 24.2384C41.8679 24.2384 31.2261 24.2384 31.2261 24.2384ZM65.6156 35.0396C62.048 35.0396 59.8311 31.763 59.8311 28.3418C59.8311 24.6848 61.7595 21.1682 65.6156 21.1682C69.6141 21.1682 71.207 24.6848 71.207 28.3418C71.2064 31.8098 69.5185 35.0396 65.6156 35.0396Z" fill="#652C8F"/>
</g>
<defs>
<clipPath id="clip0_34_1685">
<rect width="140" height="42" fill="white" transform="translate(0 0.5)"/>
</clipPath>
</defs>
</svg>
