<svg width="146" height="51" viewBox="0 0 146 51" fill="none" xmlns="http://www.w3.org/2000/svg">
<g clip-path="url(#clip0_34_1672)">
<path d="M62.1304 26.1412C62.1304 33.0814 56.7681 38.1956 50.1874 38.1956C43.6067 38.1956 38.2444 33.0814 38.2444 26.1412C38.2444 19.1521 43.6067 14.0869 50.1874 14.0869C56.7681 14.0869 62.1304 19.1521 62.1304 26.1412ZM56.9023 26.1412C56.9023 21.8043 53.7945 18.8369 50.1874 18.8369C46.5803 18.8369 43.4725 21.8043 43.4725 26.1412C43.4725 30.4347 46.5803 33.4456 50.1874 33.4456C53.7945 33.4456 56.9023 30.4293 56.9023 26.1412Z" fill="#EA4335"/>
<path d="M87.8951 26.1412C87.8951 33.0814 82.5328 38.1956 75.952 38.1956C69.3713 38.1956 64.009 33.0814 64.009 26.1412C64.009 19.1575 69.3713 14.0869 75.952 14.0869C82.5328 14.0869 87.8951 19.1521 87.8951 26.1412ZM82.667 26.1412C82.667 21.8043 79.5591 18.8369 75.952 18.8369C72.345 18.8369 69.2371 21.8043 69.2371 26.1412C69.2371 30.4347 72.345 33.4456 75.952 33.4456C79.5591 33.4456 82.667 30.4293 82.667 26.1412Z" fill="#FBBC05"/>
<path d="M112.586 14.8151V36.4564C112.586 45.3586 107.401 48.9945 101.271 48.9945C95.501 48.9945 92.0281 45.0869 90.7184 41.8912L95.2702 39.9727C96.0807 41.9347 98.0667 44.2499 101.266 44.2499C105.19 44.2499 107.621 41.7988 107.621 37.1847V35.451H107.439C106.268 36.913 104.014 38.1901 101.169 38.1901C95.2165 38.1901 89.7629 32.9401 89.7629 26.1847C89.7629 19.3804 95.2165 14.0869 101.169 14.0869C104.009 14.0869 106.263 15.3641 107.439 16.7825H107.621V14.8206H112.586V14.8151ZM107.991 26.1847C107.991 21.9401 105.195 18.8369 101.636 18.8369C98.0291 18.8369 95.0071 21.9401 95.0071 26.1847C95.0071 30.3858 98.0291 33.4456 101.636 33.4456C105.195 33.4456 107.991 30.3858 107.991 26.1847Z" fill="#4285F4"/>
<path d="M120.772 2.1304V37.4565H115.673V2.1304H120.772Z" fill="#34A853"/>
<path d="M140.643 30.1087L144.701 32.8478C143.391 34.8097 140.235 38.1902 134.782 38.1902C128.018 38.1902 122.968 32.8967 122.968 26.1358C122.968 18.9674 128.061 14.0815 134.197 14.0815C140.375 14.0815 143.397 19.0597 144.384 21.75L144.927 23.1195L129.012 29.7934C130.23 32.2119 132.125 33.4456 134.782 33.4456C137.444 33.4456 139.291 32.1195 140.643 30.1087ZM128.153 25.7717L138.791 21.2989C138.206 19.7934 136.446 18.7445 134.374 18.7445C131.717 18.7445 128.018 21.1195 128.153 25.7717Z" fill="#EA4335"/>
<path d="M18.9426 23.0054V17.8913H35.9634C36.1298 18.7826 36.2156 19.8369 36.2156 20.9782C36.2156 24.8152 35.1797 29.5597 31.841 32.9402C28.5936 36.3641 24.4444 38.1902 18.9479 38.1902C8.76012 38.1902 0.193359 29.788 0.193359 19.4728C0.193359 9.15757 8.76012 0.755402 18.9479 0.755402C24.5839 0.755402 28.5989 2.99453 31.6156 5.91301L28.0514 9.52171C25.8883 7.46736 22.9576 5.86953 18.9426 5.86953C11.503 5.86953 5.68446 11.9402 5.68446 19.4728C5.68446 27.0054 11.503 33.0761 18.9426 33.0761C23.7681 33.0761 26.5163 31.1141 28.2769 29.3315C29.7047 27.8858 30.644 25.8206 31.0144 23L18.9426 23.0054Z" fill="#4285F4"/>
</g>
<defs>
<clipPath id="clip0_34_1672">
<rect width="146" height="50" fill="white" transform="translate(0 0.5)"/>
</clipPath>
</defs>
</svg>
