<svg aria-hidden="true" style="position: absolute; width: 0; height: 0; overflow: hidden;" version="1.1" xmlns="http://www.w3.org/2000/svg" xmlns:xlink="http://www.w3.org/1999/xlink">
<defs>
<symbol id="tick" viewBox="0 0 32 32">
<path d="M29.767 5.156c-0.589-0.601-1.544-0.601-2.133 0l-18.075 18.425-6.948-7.082c-0.589-0.601-1.544-0.601-2.134 0s-0.589 1.574 0 2.175l8.014 8.17c0.589 0.6 1.545 0.6 2.134 0l19.142-19.513c0.589-0.601 0.589-1.574 0-2.175z"></path>
</symbol>
<symbol id="icon-instagram" viewBox="0 0 32 32">
<path fill="#02897a" style="fill: var(--color1, #02897a)" stroke-linejoin="round" stroke-linecap="round" stroke-miterlimit="4" stroke-width="2.6667" d="M22.667 2.667h-13.333c-3.682 0-6.667 2.985-6.667 6.667v13.333c0 3.682 2.985 6.667 6.667 6.667h13.333c3.682 0 6.667-2.985 6.667-6.667v-13.333c0-3.682-2.985-6.667-6.667-6.667z"></path>
<path fill="#02897a" style="fill: var(--color1, #02897a)" stroke-linejoin="round" stroke-linecap="round" stroke-miterlimit="4" stroke-width="2.6667" d="M21.333 15.16c0.165 1.11-0.025 2.243-0.542 3.239s-1.334 1.803-2.336 2.308c-1.002 0.504-2.138 0.68-3.245 0.502s-2.131-0.701-2.924-1.494-1.316-1.816-1.494-2.924c-0.178-1.107-0.003-2.243 0.502-3.245s1.312-1.82 2.307-2.336c0.996-0.517 2.129-0.706 3.239-0.542 1.132 0.168 2.18 0.695 2.989 1.504s1.337 1.857 1.505 2.989z"></path>
<path fill="#02897a" style="fill: var(--color1, #02897a)" stroke-linejoin="round" stroke-linecap="round" stroke-miterlimit="4" stroke-width="2.6667" d="M23.333 8.667h0.013"></path>
</symbol>
<symbol id="icon-mobile-screen-1" viewBox="0 0 21 32">
<path fill="#02897a" style="fill: var(--color1, #02897a)" d="M16.935 2.286h-13.298c-1.377 0-2.494 1.152-2.494 2.571v22.286c0 1.419 1.117 2.571 2.494 2.571h13.298c1.377 0 2.494-1.152 2.494-2.571v-22.286c0-1.419-1.117-2.571-2.494-2.571zM12.779 26.238c0 0.52-0.375 0.905-0.832 0.905h-3.371c-0.41 0-0.784-0.385-0.784-0.857s0.374-0.857 0.831-0.857h3.326c0.457 0 0.831 0.385 0.831 0.809zM16.103 22.857h-11.635v-17.143h11.637v17.143z"></path>
</symbol>
<symbol id="icon-Chart" viewBox="0 0 32 32">
<title>Chart</title>
<path fill="#00ACDD" style="fill: var(--color1, #00ACDD)" d="M16.507 3.263l-9.091 2.599c-3.313 0.947-4.687 3.486-3.799 7.021l2.433 9.69c0.888 3.534 3.268 5 6.58 4.053l9.091-2.599c3.313-0.947 4.678-3.484 3.791-7.018l-2.433-9.69c-0.888-3.534-3.259-5.003-6.572-4.056z"></path>
<path fill="#11b5e4" style="fill: var(--color4, #11b5e4)" opacity="0.5" d="M20.987 15.961l-1.651-6.672c-0.599-2.42-2.098-3.505-4.068-2.95l-6.674 1.88c-2.003 0.564-2.779 2.29-2.18 4.71l1.651 6.672c0.608 2.459 2.072 3.512 4.074 2.948l6.674-1.88c1.971-0.555 2.782-2.248 2.173-4.708z"></path>
<path fill="#00acdd" style="fill: var(--color5, #00acdd)" d="M24.411 7.834h-9.411c-3.429 0-5.373 2.073-5.373 5.732v10.031c0 3.659 1.943 5.732 5.373 5.732h9.411c3.429 0 5.364-2.073 5.364-5.732v-10.031c0-3.659-1.934-5.732-5.364-5.732z"></path>
<path fill="#00ACDD" style="fill: var(--color1, #00ACDD)" d="M24.411 8.278c0.245 0 0.444-0.199 0.444-0.444s-0.199-0.444-0.444-0.444v0.889zM24.411 7.389c-0.245 0-0.444 0.199-0.444 0.444s0.199 0.444 0.444 0.444v-0.889zM24.411 7.389h-9.411v0.889h9.411v-0.889zM15 7.389c-1.806 0-3.279 0.548-4.297 1.634-1.014 1.082-1.52 2.638-1.52 4.542h0.889c0-1.754 0.465-3.065 1.28-3.934 0.811-0.865 2.024-1.353 3.648-1.353v-0.889zM9.183 13.566v10.031h0.889v-10.031h-0.889zM9.183 23.597c0 1.905 0.506 3.46 1.52 4.542 1.018 1.086 2.491 1.634 4.297 1.634v-0.889c-1.624 0-2.837-0.488-3.648-1.353-0.815-0.869-1.28-2.18-1.28-3.934h-0.889zM15 29.774h9.411v-0.889h-9.411v0.889zM24.411 29.774c1.806 0 3.277-0.548 4.293-1.635 1.012-1.082 1.516-2.638 1.516-4.542h-0.889c0 1.755-0.463 3.066-1.276 3.935-0.808 0.865-2.019 1.353-3.643 1.353v0.889zM30.219 23.597v-10.031h-0.889v10.031h0.889zM30.219 13.566c0-1.904-0.504-3.46-1.516-4.542-1.016-1.087-2.487-1.635-4.293-1.635v0.889c1.624 0 2.835 0.488 3.643 1.353 0.813 0.869 1.276 2.18 1.276 3.935h0.889z"></path>
<path fill="#00ACDD" style="fill: var(--color1, #00ACDD)" d="M19.736 12.229c-0.457 0-0.833 0.401-0.833 0.898v10.91c0 0.487 0.376 0.889 0.833 0.889 0.466 0 0.842-0.401 0.842-0.889v-10.91c0-0.497-0.376-0.898-0.842-0.898zM15.035 15.754c-0.457 0-0.833 0.401-0.833 0.898v7.385c0 0.487 0.376 0.889 0.833 0.889 0.466 0 0.842-0.401 0.842-0.889v-7.385c0-0.497-0.376-0.898-0.842-0.898zM23.533 20.55c0-0.497 0.376-0.898 0.842-0.898 0.457 0 0.833 0.401 0.833 0.898v3.487c0 0.487-0.376 0.889-0.842 0.889-0.457 0-0.833-0.401-0.833-0.889v-3.487z"></path>
<path fill="#fff" style="fill: var(--color1, #fff)" d="M19.081 13.127c0-0.411 0.308-0.72 0.655-0.72v-0.356c-0.567 0-1.011 0.493-1.011 1.076h0.356zM19.081 24.037v-10.91h-0.356v10.91h0.356zM19.736 24.748c-0.348 0-0.655-0.311-0.655-0.711h-0.356c0 0.574 0.445 1.066 1.011 1.066v-0.356zM20.4 24.037c0 0.399-0.306 0.711-0.664 0.711v0.356c0.573 0 1.019-0.491 1.019-1.066h-0.356zM20.4 13.127v10.91h0.356v-10.91h-0.356zM19.736 12.406c0.357 0 0.664 0.311 0.664 0.72h0.356c0-0.584-0.445-1.076-1.019-1.076v0.356zM14.38 16.652c0-0.411 0.308-0.72 0.655-0.72v-0.356c-0.567 0-1.011 0.493-1.011 1.076h0.356zM14.38 24.037v-7.385h-0.356v7.385h0.356zM15.035 24.748c-0.348 0-0.655-0.311-0.655-0.711h-0.356c0 0.574 0.445 1.066 1.011 1.066v-0.356zM15.699 24.037c0 0.399-0.306 0.711-0.664 0.711v0.356c0.573 0 1.019-0.491 1.019-1.066h-0.356zM15.699 16.652v7.385h0.356v-7.385h-0.356zM15.035 15.932c0.357 0 0.664 0.311 0.664 0.72h0.356c0-0.584-0.445-1.076-1.019-1.076v0.356zM24.375 19.474c-0.575 0-1.020 0.492-1.020 1.076h0.356c0-0.41 0.307-0.72 0.664-0.72v-0.356zM25.385 20.55c0-0.583-0.444-1.076-1.011-1.076v0.356c0.347 0 0.655 0.309 0.655 0.72h0.356zM25.385 24.037v-3.487h-0.356v3.487h0.356zM24.366 25.104c0.573 0 1.020-0.491 1.020-1.066h-0.356c0 0.399-0.306 0.711-0.664 0.711v0.356zM23.355 24.037c0 0.574 0.445 1.066 1.011 1.066v-0.356c-0.348 0-0.655-0.311-0.655-0.711h-0.356zM23.355 20.55v3.487h0.356v-3.487h-0.356z"></path>
</symbol>

<symbol id="triangle" viewBox="0 0 28 32">
<path d="M26.088 12.891c2.441 1.354 2.441 4.864 0 6.218l-21.155 11.739c-2.37 1.315-5.281-0.399-5.281-3.109v-23.477c0-2.71 2.911-4.424 5.281-3.109l21.155 11.739z"></path>
</symbol>
<symbol id="coursor" viewBox="0 0 32 32">
<path d="M24.689 18.067l-17.21-17.21c-0.202-0.219-0.471-0.319-0.756-0.319-0.134 0-0.286 0.034-0.403 0.084-0.403 0.168-0.672 0.555-0.672 0.992v25.277c0 0.437 0.269 0.824 0.672 0.992 0.118 0.050 0.269 0.084 0.403 0.084 0.286 0 0.555-0.118 0.756-0.319l5.244-5.244 3.21 7.597c0.235 0.538 0.857 0.807 1.412 0.571l2.975-1.261c0.538-0.235 0.807-0.857 0.571-1.412l-3.378-8h6.42c0.437 0 0.824-0.269 0.992-0.672 0.168-0.387 0.084-0.857-0.235-1.16z"></path>
</symbol>
<symbol id="wave" viewBox="0 0 32 32">
<path d="M16.857 13.587l2.079 0.968 3.095-0.921v-2.159c0-3.667-3.095-6.603-6.794-6.603-3.683 0-6.794 2.921-6.794 6.556v9.841c0 0.905-0.73 1.619-1.619 1.619s-1.619-0.714-1.619-1.619v-4.159h-5.206c0 4.175 0 4.222 0 4.222 0 3.762 3.048 6.81 6.81 6.81 3.73 0 6.809-3 6.809-6.714v-9.714c0-0.889 0.73-1.619 1.619-1.619s1.619 0.73 1.619 1.619v1.873zM25.27 17.111v4.365c0 0.889-0.73 1.603-1.619 1.603s-1.619-0.714-1.619-1.603v-4.286l-3.095 0.921-2.079-0.968v4.254c0 3.73 3.064 6.746 6.81 6.746 3.762 0 6.81-3.048 6.81-6.81 0 0 0-0.048 0-4.222h-5.206z"></path>
</symbol>
<symbol id="heart" viewBox="0 0 32 32">
<path d="M16 29.286c0.286 0 0.571-0.107 0.786-0.322l11.125-10.714c0.161-0.161 4.089-3.75 4.089-8.036 0-5.232-3.196-8.357-8.536-8.357-3.125 0-6.053 2.464-7.464 3.857-1.411-1.393-4.339-3.857-7.464-3.857-5.339 0-8.536 3.125-8.536 8.357 0 4.286 3.929 7.875 4.071 8l11.143 10.75c0.214 0.214 0.5 0.322 0.786 0.322z"></path>
</symbol>
<symbol id="clock" viewBox="0 0 32 32">
<path d="M26.487 2.689h1.614c0.302 0 0.538-0.235 0.538-0.538v-1.076c0-0.303-0.235-0.538-0.538-0.538h-24.74c-0.303 0-0.538 0.235-0.538 0.538v1.076c0 0.303 0.235 0.538 0.538 0.538h1.613c0 6.219 2.975 10.723 6.269 12.908-3.294 2.185-6.269 6.689-6.269 12.908h-1.613c-0.303 0-0.538 0.235-0.538 0.538v1.076c0 0.302 0.235 0.538 0.538 0.538h24.74c0.302 0 0.538-0.235 0.538-0.538v-1.076c0-0.302-0.235-0.538-0.538-0.538h-1.614c0-6.219-2.975-10.723-6.269-12.908 3.294-2.185 6.269-6.689 6.269-12.908zM24.336 2.689c0 2.454-0.555 4.622-1.429 6.454h-14.353c-0.874-1.832-1.429-4-1.429-6.454h17.21zM23.378 23.126h-15.294c1.244-3.244 3.479-5.546 5.714-6.454h3.866c2.235 0.908 4.471 3.21 5.714 6.454z"></path>
</symbol>
<symbol id="icon-plus" viewBox="0 0 32 32">
<path d="M0 16c0-8.832 7.168-16 16-16s16 7.168 16 16c0 8.832-7.168 16-16 16s-16-7.168-16-16zM17.6 17.6h6.4v-3.2h-6.4v-6.4h-3.2v6.4h-6.4v3.2h6.4v6.4h3.2v-6.4z"></path>
</symbol>
<symbol id="icon-minus" viewBox="0 0 32 32">
<path d="M0 16c0-8.832 7.168-16 16-16s16 7.168 16 16c0 8.832-7.168 16-16 16s-16-7.168-16-16zM8 17.6h16v-3.2h-16v3.2z"></path>
</symbol>
<symbol id="icon-minus_circle" viewBox="0 0 32 32">
<path d="M0 16c0-8.832 7.168-16 16-16s16 7.168 16 16c0 8.832-7.168 16-16 16s-16-7.168-16-16zM8 17.6h16v-3.2h-16v3.2z"></path>
</symbol>

<symbol id="icon-menu" viewBox="0 0 28 32">
<path stroke-linejoin="round" stroke-linecap="round" stroke-miterlimit="4" stroke-width="3" d="M3.5 16h21"></path>
<path stroke-linejoin="round" stroke-linecap="round" stroke-miterlimit="4" stroke-width="3" d="M3.5 8h21"></path>
<path stroke-linejoin="round" stroke-linecap="round" stroke-miterlimit="4" stroke-width="3" d="M3.5 24h21"></path>
</symbol>
<symbol id="icon-Activity" viewBox="0 0 32 32">
<title>Activity</title>
<path fill="#f03e3d" style="fill: var(--color1, #f03e3d)" d="M17.996 4.024l-9.328 2.871c-3.399 1.046-4.849 3.681-4.008 7.285l2.305 9.881c0.841 3.604 3.243 5.053 6.642 4.007l9.328-2.871c3.399-1.046 4.84-3.678 3.999-7.283l-2.305-9.881c-0.841-3.604-3.234-5.056-6.633-4.010z"></path>
<path fill="#e31313" style="fill: var(--color2, #e31313)" opacity="0.5" d="M17.329 8.444l-6.162 1.896c-2.245 0.691-3.218 2.366-2.69 4.632l1.449 6.212c0.529 2.266 2.1 3.158 4.345 2.467l6.162-1.896c2.245-0.691 3.212-2.364 2.684-4.63l-1.449-6.212c-0.529-2.266-2.094-3.16-4.34-2.469z"></path>
<path fill="#f03e3d" style="fill: var(--color3, #f03e3d); stroke: var(--color1, #FFEFEF)" stroke="#FFEFEF" stroke-linejoin="round" stroke-linecap="round" stroke-miterlimit="4" stroke-width="0.4776" d="M24.15 8.977h-8.816c-1.789 0-3.297 0.691-4.355 1.902-1.056 1.209-1.649 2.919-1.649 4.939v9.112c0 2.014 0.593 3.722 1.649 4.929 1.058 1.21 2.566 1.901 4.355 1.901h8.816c1.789 0 3.295-0.691 4.35-1.901 1.053-1.207 1.644-2.915 1.644-4.929v-9.112c0-2.020-0.591-3.73-1.644-4.939-1.056-1.212-2.561-1.903-4.35-1.903z"></path>
<path fill="#f03e3d" style="fill: var(--color1, #f03e3d)" d="M30.984 7.578c-0.825 0-1.494 0.734-1.494 1.639s0.669 1.639 1.494 1.639c0.825 0 1.494-0.734 1.494-1.639 0-0.435-0.157-0.851-0.438-1.159s-0.66-0.48-1.056-0.48z"></path>
<path fill="linear-gradient(223deg, #fff 0%, rgba(255, 255, 255, 0.2) 100%);" style="fill: var(--color1, linear-gradient(223deg, #fff 0%, rgba(255, 255, 255, 0.2) 100%);)" d="M25.057 18.394l-2.906 4.113c-0.122 0.179-0.306 0.295-0.508 0.323s-0.406-0.036-0.565-0.176l-2.79-2.399-2.512 3.565c-0.182 0.317-0.536 0.459-0.862 0.346s-0.541-0.452-0.524-0.826c-0.002-0.185 0.055-0.365 0.161-0.509l3.004-4.25c0.121-0.177 0.302-0.294 0.502-0.323s0.403 0.031 0.562 0.167l2.79 2.409 2.45-3.457c0.118-0.178 0.297-0.297 0.495-0.328s0.401 0.027 0.56 0.161c0.328 0.282 0.392 0.799 0.143 1.165v0.020z"></path>
</symbol>
<symbol id="star" viewBox="0 0 34 32">

<path d="M32.404 11.487c-0.102-0.296-0.29-0.556-0.541-0.749s-0.553-0.308-0.869-0.333l-9.261-0.725-4.008-8.736c-0.128-0.281-0.335-0.52-0.598-0.688s-0.569-0.257-0.882-0.257c-0.313-0-0.619 0.089-0.882 0.256s-0.471 0.406-0.599 0.687l-4.008 8.737-9.261 0.725c-0.311 0.024-0.609 0.136-0.857 0.323s-0.437 0.439-0.543 0.728c-0.106 0.289-0.125 0.602-0.055 0.902s0.226 0.573 0.449 0.787l6.844 6.57-2.421 10.321c-0.074 0.312-0.050 0.639 0.068 0.938s0.324 0.556 0.592 0.739c0.268 0.182 0.585 0.281 0.911 0.283s0.645-0.092 0.915-0.27l8.845-5.807 8.845 5.807c0.277 0.181 0.603 0.274 0.935 0.267s0.654-0.114 0.922-0.307c0.268-0.193 0.47-0.462 0.579-0.771s0.118-0.644 0.028-0.958l-2.971-10.238 7.369-6.53c0.482-0.429 0.66-1.097 0.452-1.704z"></path>
</symbol>
<symbol id="star-stroke" viewBox="0 0 34 32">

<path d="M8.624 19.716l-2.421 10.321c-0.075 0.313-0.052 0.64 0.065 0.94s0.323 0.558 0.591 0.74c0.268 0.183 0.586 0.281 0.912 0.283s0.645-0.093 0.916-0.273l8.845-5.807 8.845 5.807c0.277 0.181 0.603 0.274 0.935 0.267s0.654-0.114 0.922-0.307c0.268-0.193 0.47-0.462 0.579-0.771s0.118-0.644 0.028-0.958l-2.971-10.238 7.369-6.53c0.236-0.209 0.405-0.482 0.485-0.785s0.069-0.622-0.033-0.918c-0.102-0.296-0.29-0.556-0.54-0.748s-0.553-0.308-0.87-0.332l-9.261-0.726-4.008-8.736c-0.128-0.281-0.335-0.52-0.598-0.688s-0.569-0.257-0.882-0.257c-0.313 0-0.619 0.089-0.882 0.257s-0.47 0.406-0.598 0.688l-4.008 8.736-9.261 0.725c-0.311 0.024-0.609 0.136-0.857 0.323s-0.437 0.439-0.543 0.728c-0.106 0.289-0.125 0.602-0.055 0.902s0.226 0.573 0.449 0.787l6.846 6.57zM13.259 12.796c0.29-0.023 0.568-0.121 0.806-0.286s0.426-0.39 0.545-0.651l2.922-6.368 2.922 6.368c0.119 0.261 0.308 0.486 0.545 0.651s0.516 0.264 0.806 0.286l6.453 0.504-5.314 4.709c-0.461 0.409-0.645 1.040-0.476 1.628l2.036 7.014-6.069-3.985c-0.266-0.176-0.58-0.27-0.901-0.27s-0.634 0.094-0.901 0.27l-6.342 4.164 1.706-7.272c0.063-0.267 0.054-0.546-0.024-0.81s-0.225-0.502-0.424-0.694l-4.935-4.738 6.644-0.521z"></path>
</symbol>
</defs>
</svg>