<svg width="213" height="45" viewBox="0 0 213 45" fill="none" xmlns="http://www.w3.org/2000/svg">
<g clip-path="url(#clip0_34_1679)">
<path d="M75.1848 25.8426L73.9153 29.3217H73.8095C73.5979 28.5372 73.21 27.3434 72.5752 25.9108L65.7691 9.36818H59.104V35.7341H63.5121V19.4643C63.5121 18.441 63.5121 17.2814 63.4768 15.8488C63.4416 15.1325 63.3711 14.5868 63.3358 14.1775H63.4416C63.6532 15.2007 63.9 15.9511 64.0764 16.4286L72.2578 35.6658H75.3611L83.472 16.2581C83.6484 15.8147 83.8247 14.9279 84.001 14.1775H84.1068C84.001 16.1217 83.9305 17.8612 83.8952 18.9186V35.6317H88.5855V9.29996H82.1672L75.1848 25.8426ZM93.0288 16.7356H97.6133V35.6317H93.0288V16.7356ZM95.3563 8.75422C94.5805 8.75422 93.9457 9.02709 93.4168 9.50461C92.8878 9.98213 92.6057 10.5961 92.6057 11.3465C92.6057 12.0627 92.8878 12.6767 93.4168 13.1542C93.9457 13.6317 94.5805 13.8705 95.3563 13.8705C96.1321 13.8705 96.8022 13.5976 97.2959 13.1542C97.8249 12.6767 98.107 12.0627 98.107 11.3465C98.107 10.6302 97.8249 10.0162 97.2959 9.50461C96.8374 9.02709 96.1674 8.75422 95.3563 8.75422ZM113.87 16.5651C113.024 16.3945 112.142 16.2922 111.296 16.2922C109.215 16.2922 107.311 16.7356 105.724 17.6224C104.137 18.5093 102.868 19.7372 102.057 21.2721C101.21 22.841 100.787 24.6488 100.787 26.7294C100.787 28.5372 101.21 30.1403 102.021 31.6069C102.832 33.0395 103.961 34.1992 105.477 34.9837C106.923 35.7682 108.616 36.1775 110.52 36.1775C112.707 36.1775 114.576 35.7341 116.057 34.9155L116.092 34.8814V30.7883L115.916 30.9248C115.246 31.4023 114.47 31.8116 113.694 32.0503C112.883 32.3232 112.142 32.4596 111.508 32.4596C109.674 32.4596 108.228 31.948 107.205 30.8224C106.147 29.731 105.618 28.2302 105.618 26.3542C105.618 24.41 106.147 22.8752 107.241 21.7496C108.334 20.624 109.78 20.0441 111.543 20.0441C113.024 20.0441 114.54 20.5217 115.916 21.4767L116.092 21.6131V17.2814L116.057 17.2472C115.457 17.0085 114.787 16.7356 113.87 16.5651ZM128.999 16.4286C127.871 16.4286 126.813 16.7697 125.896 17.486C125.12 18.1 124.591 18.9868 124.132 20.0441H124.097V16.7356H119.513V35.6317H124.097V25.979C124.097 24.3418 124.45 22.9775 125.226 21.9883C126.002 20.9651 126.989 20.4534 128.188 20.4534C128.611 20.4534 129.034 20.5558 129.563 20.624C130.057 20.7604 130.41 20.8969 130.656 21.0674L130.833 21.2038V16.7697L130.727 16.7356C130.41 16.531 129.775 16.4286 128.999 16.4286ZM141.483 16.3263C138.274 16.3263 135.699 17.2472 133.901 19.055C132.067 20.8628 131.185 23.3527 131.185 26.4907C131.185 29.424 132.102 31.8116 133.866 33.5511C135.629 35.2565 138.027 36.1434 141.024 36.1434C144.163 36.1434 146.667 35.2224 148.465 33.3806C150.299 31.5387 151.181 29.0829 151.181 26.0472C151.181 23.0457 150.334 20.6581 148.606 18.9186C146.949 17.179 144.516 16.3263 141.483 16.3263ZM145.15 30.8565C144.304 31.9139 142.964 32.4255 141.306 32.4255C139.649 32.4255 138.309 31.9139 137.357 30.7883C136.405 29.731 135.946 28.1961 135.946 26.2519C135.946 24.2395 136.44 22.7046 137.357 21.6131C138.309 20.5217 139.614 19.9759 141.271 19.9759C142.893 19.9759 144.163 20.4876 145.08 21.5449C145.997 22.6023 146.49 24.1372 146.49 26.1496C146.42 28.1961 146.032 29.7992 145.15 30.8565ZM161.407 24.5806C159.962 24.0007 159.045 23.5573 158.622 23.1821C158.269 22.841 158.093 22.3635 158.093 21.7496C158.093 21.2379 158.304 20.7263 158.833 20.3852C159.362 20.0441 159.962 19.8736 160.843 19.8736C161.619 19.8736 162.43 20.01 163.206 20.2147C163.982 20.4193 164.687 20.7263 165.251 21.1356L165.428 21.2721V17.1108L165.322 17.0767C164.793 16.8721 164.088 16.6674 163.241 16.4969C162.395 16.3604 161.619 16.2922 160.984 16.2922C158.798 16.2922 156.999 16.8038 155.589 17.9294C154.178 18.9868 153.508 20.4193 153.508 22.0907C153.508 22.9775 153.649 23.762 153.967 24.41C154.284 25.0581 154.742 25.6721 155.377 26.1837C156.012 26.6612 156.929 27.2069 158.198 27.7186C159.256 28.162 160.067 28.5031 160.561 28.7759C161.055 29.0488 161.372 29.3558 161.619 29.5945C161.795 29.8674 161.901 30.2085 161.901 30.6519C161.901 31.9139 160.914 32.5279 158.904 32.5279C158.128 32.5279 157.317 32.3914 156.365 32.0845C155.412 31.7775 154.531 31.3341 153.79 30.8224L153.614 30.686V35.0178L153.72 35.0519C154.39 35.3589 155.201 35.5635 156.188 35.8023C157.176 35.9728 158.057 36.1093 158.833 36.1093C161.196 36.1093 163.135 35.5976 164.511 34.4721C165.921 33.3806 166.662 31.9821 166.662 30.1744C166.662 28.9124 166.309 27.7868 165.533 26.9341C164.511 26.1155 163.241 25.2628 161.407 24.5806ZM178.758 16.3263C175.549 16.3263 172.974 17.2472 171.176 19.055C169.377 20.8628 168.46 23.3527 168.46 26.4907C168.46 29.424 169.377 31.8116 171.141 33.5511C172.904 35.2565 175.302 36.1434 178.299 36.1434C181.438 36.1434 183.942 35.2224 185.74 33.3806C187.574 31.5387 188.456 29.0829 188.456 26.0472C188.456 23.0457 187.609 20.6581 185.881 18.9186C184.224 17.179 181.791 16.3263 178.758 16.3263ZM182.39 30.8565C181.544 31.9139 180.204 32.4255 178.546 32.4255C176.854 32.4255 175.549 31.9139 174.597 30.7883C173.644 29.731 173.186 28.1961 173.186 26.2519C173.186 24.2395 173.68 22.7046 174.597 21.6131C175.549 20.5217 176.854 19.9759 178.511 19.9759C180.098 19.9759 181.403 20.4876 182.32 21.5449C183.236 22.6023 183.73 24.1372 183.73 26.1496C183.73 28.1961 183.272 29.7992 182.39 30.8565ZM212.965 20.3852V16.7356H208.345V11.1418L208.204 11.1759L203.831 12.4379L203.725 12.4721V16.7356H196.813V14.348C196.813 13.2565 197.096 12.4038 197.589 11.8581C198.083 11.3124 198.824 11.0395 199.74 11.0395C200.375 11.0395 201.045 11.1759 201.786 11.4829L201.962 11.5852V7.73097L201.856 7.69686C201.222 7.49221 200.375 7.35577 199.282 7.35577C197.907 7.35577 196.708 7.66275 195.614 8.17438C194.521 8.75422 193.71 9.53872 193.111 10.5961C192.511 11.6193 192.194 12.779 192.194 14.1093V16.7356H188.985V20.3511H192.194V35.6317H196.813V20.3852H203.725V30.1062C203.725 34.0969 205.665 36.1093 209.544 36.1093C210.179 36.1093 210.849 36.0069 211.484 35.9046C212.154 35.7682 212.647 35.5976 212.93 35.4612L212.965 35.4271V31.7775L212.788 31.9139C212.506 32.0845 212.259 32.2209 211.836 32.3232C211.484 32.4255 211.166 32.4596 210.919 32.4596C210.003 32.4596 209.368 32.255 208.909 31.7434C208.486 31.2659 208.275 30.4814 208.275 29.3217V20.3852H212.965Z" fill="#737373"/>
<path d="M0 0.5H21.6174V21.4085H0V0.5Z" fill="#F25022"/>
<path d="M23.8743 0.5H45.4917V21.4085H23.8743V0.5Z" fill="#7FBA00"/>
<path d="M0 23.5915H21.6174V44.5H0V23.5915Z" fill="#00A4EF"/>
<path d="M23.8743 23.5915H45.4917V44.5H23.8743V23.5915Z" fill="#FFB900"/>
</g>
<defs>
<clipPath id="clip0_34_1679">
<rect width="213" height="44" fill="white" transform="translate(0 0.5)"/>
</clipPath>
</defs>
</svg>
